<mxfile host="app.diagrams.net" modified="2023-12-09T21:52:11.056Z" agent="Mozilla/5.0 (Windows NT 10.0; Win64; x64) AppleWebKit/537.36 (KHTML, like Gecko) Chrome/120.0.0.0 Safari/537.36" etag="FnXO-Ibv8UaRYHrvQ-c9" version="22.1.7" type="github">
  <diagram name="Page-1" id="vg0f0rgfR2TwOUwn9TRX">
    <mxGraphModel dx="1050" dy="534" grid="1" gridSize="10" guides="1" tooltips="1" connect="1" arrows="1" fold="1" page="1" pageScale="1" pageWidth="827" pageHeight="1169" math="0" shadow="0">
      <root>
        <mxCell id="0" />
        <mxCell id="1" parent="0" />
        <mxCell id="n_Ep3YgRqeOaTJRbYN4X-1" value="" style="whiteSpace=wrap;html=1;aspect=fixed;" parent="1" vertex="1">
          <mxGeometry x="160" y="90" width="80" height="80" as="geometry" />
        </mxCell>
        <mxCell id="n_Ep3YgRqeOaTJRbYN4X-2" value="Time Series Data&amp;nbsp;" style="ellipse;whiteSpace=wrap;html=1;aspect=fixed;" parent="1" vertex="1">
          <mxGeometry x="30" y="190" width="80" height="80" as="geometry" />
        </mxCell>
        <mxCell id="n_Ep3YgRqeOaTJRbYN4X-3" value="" style="endArrow=classic;html=1;rounded=0;" parent="1" edge="1">
          <mxGeometry width="50" height="50" relative="1" as="geometry">
            <mxPoint x="100" y="200" as="sourcePoint" />
            <mxPoint x="150" y="150" as="targetPoint" />
          </mxGeometry>
        </mxCell>
        <mxCell id="n_Ep3YgRqeOaTJRbYN4X-4" value="IoT Derived Data" style="ellipse;whiteSpace=wrap;html=1;aspect=fixed;" parent="1" vertex="1">
          <mxGeometry x="350" y="145" width="80" height="80" as="geometry" />
        </mxCell>
        <mxCell id="n_Ep3YgRqeOaTJRbYN4X-5" value="" style="endArrow=classic;html=1;rounded=0;exitX=1.055;exitY=0.12;exitDx=0;exitDy=0;exitPerimeter=0;" parent="1" edge="1">
          <mxGeometry width="50" height="50" relative="1" as="geometry">
            <mxPoint x="260.0000000000001" y="120.00000000000003" as="sourcePoint" />
            <mxPoint x="340" y="70" as="targetPoint" />
          </mxGeometry>
        </mxCell>
        <mxCell id="n_Ep3YgRqeOaTJRbYN4X-6" value="" style="shape=cube;whiteSpace=wrap;html=1;boundedLbl=1;backgroundOutline=1;darkOpacity=0.05;darkOpacity2=0.1;" parent="1" vertex="1">
          <mxGeometry x="340" y="240" width="140" height="80" as="geometry" />
        </mxCell>
        <mxCell id="n_Ep3YgRqeOaTJRbYN4X-7" value="" style="shape=cube;whiteSpace=wrap;html=1;boundedLbl=1;backgroundOutline=1;darkOpacity=0.05;darkOpacity2=0.1;" parent="1" vertex="1">
          <mxGeometry x="670" y="240" width="150" height="80" as="geometry" />
        </mxCell>
        <mxCell id="n_Ep3YgRqeOaTJRbYN4X-8" value="" style="shape=cube;whiteSpace=wrap;html=1;boundedLbl=1;backgroundOutline=1;darkOpacity=0.05;darkOpacity2=0.1;" parent="1" vertex="1">
          <mxGeometry x="520" y="240" width="120" height="80" as="geometry" />
        </mxCell>
        <mxCell id="n_Ep3YgRqeOaTJRbYN4X-9" value="Concatenated Dataset" style="ellipse;whiteSpace=wrap;html=1;aspect=fixed;" parent="1" vertex="1">
          <mxGeometry x="500" y="80" width="80" height="80" as="geometry" />
        </mxCell>
        <mxCell id="n_Ep3YgRqeOaTJRbYN4X-10" value="Forecasted Data" style="ellipse;whiteSpace=wrap;html=1;aspect=fixed;" parent="1" vertex="1">
          <mxGeometry x="350" width="80" height="80" as="geometry" />
        </mxCell>
        <mxCell id="n_Ep3YgRqeOaTJRbYN4X-11" value="Bayesian Estimation" style="shape=parallelogram;perimeter=parallelogramPerimeter;whiteSpace=wrap;html=1;fixedSize=1;" parent="1" vertex="1">
          <mxGeometry x="500" y="400" width="150" height="60" as="geometry" />
        </mxCell>
        <mxCell id="n_Ep3YgRqeOaTJRbYN4X-12" value="" style="shape=cylinder3;whiteSpace=wrap;html=1;boundedLbl=1;backgroundOutline=1;size=15;" parent="1" vertex="1">
          <mxGeometry x="270" y="370" width="80" height="120" as="geometry" />
        </mxCell>
        <mxCell id="n_Ep3YgRqeOaTJRbYN4X-13" value="Linear Optimization Solutions" style="shape=parallelogram;perimeter=parallelogramPerimeter;whiteSpace=wrap;html=1;fixedSize=1;" parent="1" vertex="1">
          <mxGeometry x="30" y="390" width="140" height="79.32" as="geometry" />
        </mxCell>
        <mxCell id="n_Ep3YgRqeOaTJRbYN4X-14" value="" style="shape=image;verticalLabelPosition=bottom;labelBackgroundColor=default;verticalAlign=top;aspect=fixed;imageAspect=0;image=data:image/png,iVBORw0KGgoAAAANSUhEUgAAASYAAACsCAMAAADhRvHiAAAAqFBMVEX///8Yn90Am9wAmdsAmNtfXV0GndwAmdyj0O0Altr3+/1kYmJut+RgXl5cWlpqaGjw+Pz39/fz8/NubGytra2x1/Dg7/l1dHSSkZFYVVWysrJ9e3vC4fPY6vXn8/k5qN/e5OeLxumYy+soo97KysqkpKTr7O3e3t7Y2dnFxcWHhoa73PJzvOTi7PNdsuLO5vWamZq8vLxRp9dAo9eEutq91ubQ2+SkyeBPVxf5AAAJaElEQVR4nO2be3+iOhOAJVwqIOCleKtKES+1UrTd2/f/Zi/JTEKwHvd39rgtb53nj20zYJoMc8vgtloEQRAEQRAEQRAEQRAEQRAEQRAEQRAEQRAEQRAEQRAE0XB6vf92/TZY+/cXr++C4wetpNE8h6uL19fh6wetpMn0o3Bz8YaRfVmNt8GTP7p4vR/a3gctpcm82uOL15/sy2q8EZ7t3cXr9+H6g1bSUPobnumjYKskvY3M/Zu+lGlq3FwOYl+S1XPkR6Px2vf5aPf82upNR/6AFwf8l+gIGusNMMJvxyPfHzzfWNZbB+HgYeBP/OiBD8uqYPswGfh+OG09DSZRFAQQsh79kdDXOrT90SiaXK6xvhr3QbTreb3eZuRP+dj3x8HDttVb+6NpMFq1ejs/fOQXXsNncb9vT/u8IL+pinwV+BiRRvZT+e/WjkJhJ/0oCsGMBlAuHW3uZivbf/qUhX4uI3sKv2xtmwfrVRCAN/UG/ljesoMfXD+DYPoJq/xsdkGEv73awqeOGIlavcjHdDawub1tQh7hV/bgw9fYAMa2jMRHONc+hOhTjyEWk+UZhpvZk80j/Di4rcgNbCIZmfDAtvF9rJNWQi0lW18Y3Jor9LfHvq9J6UN4TOuFwsdWkM5aPO9jEMIzjGgfbO3BTSU4ZBpIraxsYTNTW7aUVDvgKNonYEc7+/ndHDfAUYWme9DPg1TOJgjRbiDDQWh6vU01Pcj0XsYkcfjwA4w9TzKlbfyIR6upcL374EbVBCez/iCyH8uf29DGK/c2tgOwBBiHvHia3qY1YZVUWkzkcx97Vb0SUEtL+WUkiqddMOifmearswv9Xas3DQZjKLmPsibvDUKsFB4CHq0eRXFZBnJ/zL1y8/gJi/08es9BYIeT5/54wvXTiyYyNE2wuNzYE3GGmYC37cLAtstP3Ngrlv7aDkdlfNodufH078eY3rZH9L7NvTCz1Rgz4HZsh/5oTO8OfsstFpgEQRDE/zP7NmdZvfiOhSBW426cFplhFGl71pWyWVtjv7iBt+Zti5W485PxAYezwjUdoJQmKdyXMB3XSLvnpv5KzJlRwto4XFh8aKY4KkzH0HCYueByZhh1sXP4h+n/AE9wvfmug8EVwXIcFXzkJDDYM8c4UUjB5YcTNXFFXc2eDm6JxZqmp1woxoDBUijAESbTii3UEjidsDoRs9rv1GSw9FrrEUtwOtea7lrEptCEsIahy3+3ZuLC3kIlmcnb29u3zDFN5orbhMkZzh3HBJVJA/zviMnZ8lrTXYuuUA0TwSXRHHAB9lMOX8TY8xY/YrF6LxMGWDxyfoIBGmxxneV4IgiYV4x1VwJ0w2N4yg3L+QZiNBk2e/eBBShWPnDhtYZ1JTVBDjGalzohOJXBYC5WyMB40OXYmccKoUk98L15Yk3DOI4P70Pw/Kz4UEpnmorF5Ndz4esxM3FhwpdMLCwzp2YyOikEffnARXBzMlTAImWWWeImbf0zi9Q8I96XVVkJs6wk58Vrt0xxEOpcy3KvlhWuwkIoxPRSplUGYCLnn6rj1C6BNRYwiB2ZBR2WDdVH2qwSJ9J29KrMcbhWZnoKPePun4oITk4ORoEyiEx351baZTU788AF92KQWlqlVRVTuaVt34Gs2hrWqzJuxrkucRoWn7BYEpvHQ0v3gjHBI1fPGgpSiPtLXR1V9SNSgyYGiwW3NjChGu4CH5i8Kzvztz+Tg9qFDExYTJ2vXlIwtPmQE0NxYAj/mrngLY6BhgLpLz4Vi+oLdFe6ZmawsvpiDk+h6HQOj2LNCk2l20g1yQAjrV/ZlkSMwB+NO4tjalqCoGWY31+8blodFT0mxd1uztTTMCDBvvB5X8qKrJR5szgT60j3Zf67UoVxPTpo/pl6H8B0s09doRHLdfmoe3rOM4wc3nIu9SgFAY9bBGjMBCfNpPgg82sN77S4aBLgRnInLRWlMet15NFOjOfWqZYcMDqonzHwYP1TcLWK8hVdSJ3YoIwoWnVmtTzSLA64caZ6cRilcSyzNHRblu/Pva4woFhoQJZTSk1tsXMDy6qlFKPpLevpDC7nrQbiZdJa1LEcqiass4fSfCwRgcC2eJA1zTsTTzRcCYVuTJWaCuV9HGVN2GVgRrHXKvPq4NQ4Chls1CPHPVjwpNsuKgMKbQuC7JxzgEQHMdnVVFvZhQdi2R1Na7EJdOwW6kQEf/flg3b+bwCngOOr3AwkOhcG3fnPoiq0h2ZNG2Bq3Dxg366cVvZDZnC/FFfmUlTO67hox9DvUzc3CMg42Tc9zqKBMXVTVvkCVFRW/RLXIMTkNymHfsgeI5YK1VppqjeQTbih3cyWnAxM5qF+MEc/VDdpLalOfdtY/hSn0Rda7GUdmdZCE5iLC849S1x1XtH6fc1rycmFpeg8pqdJHaWmveY4SW3bqEE+zmsXUnk8FgWlU+tNVSb30k4MDOU8Wcpn9ne3/AdAYOJlpVV5g8xmlozoas/leaIemmTvaX+iJs+RdlFTE5SmtUy2gKJNqAn6fUbjikuomMSZpPOuNqy2o1kQRGS1E+wE81ZAKrt7HMgBjhLrhapzcvS3lOL3QqWNKy7RyMWj1ixGKQONq6s1VWq3tWZQD4hQhbFdqADULJSD5iYMcwlHkfqZdm6qcLVsZueyozXUIJ9b2EnDZM2SZbu9LJTFqFZHxuGvMQ1ljmCZjhEPZwUc/p1eJc7q4pmZpO32bD48gM+BbrCjEw8P8fDsgj+FNjxcKOYWhu5nSyz++Ctx0AXGXVfK5Zs7ZY6Q8/iLYVSe+eus2OKlaC5etvNCHtsN4lwkX9KYptucMA7WrlpMid6r9fQGmaE8SGtNVRfkm/S4fu2i+GR6fAaxqjjZvNUQvEzXy0nl3VpkJydcszre1jbIDHVgzjWFOHcqAnV0MWip69YmYQnkVE8ZaHNeQBXimybVemKLj13ZTPFyZsKq4eso8B2Lgjk6jGXftf87tiyDFeQyZvyoxCk7FS8SPjnOzth32eeaiT9Zipy/uvV/waGT5528U+1m0RHsK0G7k/AX4llS5OkPKAHyjkae/prXv9i7WBaZ6bpJ51fvN+JhnHOZ5bzlvzRFzzuOayWd9Od1N/u3+YOv0Jz/xNmJzgkb+J0dgiAIgiAIgiAIgiAIgiAIgiAIgiAIgiAIgiAIgiAIgiAIgiAIgiAIgiAIgiAIgiAIgiAIgiAIgiAIgiC+Cv8DFjOd/F39+iQAAAAASUVORK5CYII=;" parent="1" vertex="1">
          <mxGeometry x="540" y="261.5" width="100" height="58.5" as="geometry" />
        </mxCell>
        <mxCell id="n_Ep3YgRqeOaTJRbYN4X-15" value="" style="shape=image;verticalLabelPosition=bottom;labelBackgroundColor=default;verticalAlign=top;aspect=fixed;imageAspect=0;image=data:image/png,iVBORw0KGgoAAAANSUhEUgAAAT4AAACfCAMAAABX0UX9AAABIFBMVEX///9LS03vSSf8tRh2tkQbmtdDQ0VAQEJHR0k5OTs9PUC1tbXg4OCamps2Njn4+Pjn5+ivr7DxYkn8v0bvRiJSUlPIyMjAwMDxb1v8vjyHvl3W1tZVq93Pz9Cfn6B3d3iLi4z8sADuNwAwMDMAkdTy8vLk5OSAgIGmpqdvb3CKiotqsS6wsLFmZmheXl9ycnTuPRAmJirP5MLq8+TzgW/wWj772tX0jHzwUzT2oJP85eH3saf98O75wbn6z8n1lYbxaVG316F+uk7yeWbf7dWmzov3rKH1+vKVxXO+26v6ycJnryfi7tqnzoyLwGS82ae62/DT6PUvodp0uuOjz+v+58L9yGb94bGHwubY6/f92p7+8t3904r9xl+73PD90YLQAAvzAAALO0lEQVR4nO2bCZubxhmAIXaYAQnQOhKyjXWsJHSsV2h3bTfpmTp1u0nqpImdo7WT+P//i8IcMMMMhw5Xu+73Po+fx8uAGF7N8X0zyDAAAAAAAAAAAAAAAAAAAAAAAAAAAAAAAAAAAAAAAAAAAAAAAAAAAAAAAAD+b3h6rwnP7v3u2BW9mdy/6NYz+fTY1byp3O9+VMfFZ9D0yqjV1538/th1vMHU6Zvc+8Oxq3iTqdbXnfzx2BW82VTqm9z/07Hrd8Op0Hdx8edj1+7GU6qvO3nqH7tyN58yfRcf/eXYVbsN6PV1J58fu2K3A62+i2cQKDdDo687+Yd63pP/fdVuA6q+yV81gfLzL/SX+wGhoy3sBO1mlejQT6k5K9LfhZfOw7A9j+Tpzh9IhJFyWTvglH2wX3VGUV/3QhMov3z4+KH+s9uXTsL0XFfmeo63bjR7n0zTT7msPLfjTkufcOCusWeneKg3Wob5RaR6GbaHV+eywqSSlMt5ZeXSqzWFsr7u5G+aQPn547t3y/TZZgJqaYoCLy0Zl1RKriFKP8Wr0BcubMvR64tcbFvYzMDItsbsozq2WSApHYv3cS1WYLklt+5ll2oKJX0X3a/VM158kdjbQR+pGI5LKiVRp8+P7cSPXp9rW0VFpjllo4aqLxWFQ+Hy7Gqkv/cg+4gafd3Jp5oH+Hsqbxd9y9QJXumvk6nT10kbslZfaCKNINNmPVGrLynO/eX6Shr3ImvY1fouPtMEyi/uMrbXF1kIW9NQU6JQq88ueb5zL3s2i4xPiHbjgj4LJTi27XAVOLtVrk//TUf5F1ClT7us53/5eHd9RjReLZpNvbvqG3J7yF4N+4MwDM7dtY1wQR+iM5vfCUZMBhryj8j1mZ5uZl+iJvounmmilau7OTvoa86O+pbMHjJbwqVRf217sr68egOHueAHBH3W0FAhEweu1qcNlK/zpncz9QXMnqc8dtiTpg6xen1HbmlUX0z9qXcmEwde4Sp92mW9K1HeTdTns4bkDDRXSIGLVD3akrLJg+izllg/OhgjUtBC5fq6umW9629lewfTF7XbHUVTnb5Ip29Bu51dNbxq9G2wqg+d0yhro72x5Qbl+iZPNU3vq4K8A+lrbVCaGjirfvrXMMVNn17W1w76/YGQGwRL2sPw2TJlSPtdm3ZdrzLV0+ij7UnuvNZyTk70ikkdmTi8Tr9cnyZQfvJQsbeDvtZmlLAQDiAeOGCnNzeiqZXgpSYFffMzxyYZ0jrzkgXGOI0/EIuFqAZrrK8XQ6NvjdWpI5k04vQwWhauJ3ddG+WdV8NzVd5OWYeDMbayehojMYTFdpv1SFmf61nZGSN24VBOKxyiL6KNz6l+FFWfb8vWqT7XaDkaQ4FNa7iFvhd3/6mxt2vSZvb4n6tCeoDajqpv44hnsDhWq++cXKKNNQRUfTSO87L1Aa7PIHe25WmItHDL2Ebf9cuvvnn4+HGxBe6rb8zEWI6XhP8ozYbNoj5jQfK8LEtyaF9ybd7n097OEpmNPISVoMZ9tMnnywOZvjGZPEbi1aSFp2Xn23TelJdXBYd76gt5jHYWJl00apm8RQn6UMtOuizebDBvgw6ZTPrumMZdCzdlTFoObcs9zX1FCvp8mqYgIT3L9LXVyYM0+7Shbq2P8OTqm2+5wz31xZj1WF46Qoq+RKkVk6Y1YHE+KTR0gUunMISVwHLeXqvf77eGGzoHecJ0lutjk8eJUEacrbP6bauP8OTqeepwP31s1Ufsayus6DMt3nd82jjxQrQg6qPJV23AxFdcyJRNVxNQTwp1cn00HxHac+DI9dtJH+HJ1b/0BQ310VUfRzwtchR9wuIgy61YjVV9tFw84i9GAptAuFAED+XgPNdnkHOFtSwyvJJVwH31ldJQHzLV+9NyUZ8nJBD0iEOHIlUfnQsdYTlsPsUCdku4UMLyYrG2gj6aeWQ9mywy0uFheVx9IR2p5CgjLAYu0oLbGc2taG9vok82hUr1pUE7LiyXUn1zMq9kqSOZOGhKWK7vu+8bSCqnmT71YQ0e+Eozr1BKJzuW0JbqE8K0Kn10JEX5eum0L9WS7XOQhATxba/0DzJxVOl7NJu9ev3D97u+ztJMH/1vYUnAL+qTkv/AqdRHxz7Uz4/MSQ5osU0jSV9WvU5/wyR78oqLm38o7gkVYFP/0irV93HCbGeHzfTRmaOwF6PqE2OuQbU+WmwJOWq0GBPYvbT6jHRzhDVAsZZ8l43ek5olkQGiSmr0UWazj7d22EwfDVIKMa6iT2qdYbU+egQvDJWK1pcSsUmpL9SS66N/nJEr84mDp401+nKHv6m78SU000dXOQp7lnvp4zOz5r41+vhANhJqyfXRycP2+XE+nDTXxxz+pjlVxzb6Dtn62HqVrdnIq9PH5xihltkWOZ080tNJELNmh7fTN3vduAc308dWeOVy7YJVRp0+tgii6b11+gwWr/t5LTN9dPKI5YljW32apvfjA821RlN9ZDWDB3EcJe7bSh9b79MsudTqY4v8On1s8pjTxo14hdzm+mav1ZOufzrdSx8dbsQww+Bf6a762Gye9a+cOn2+V976+Nq9L04cW+ibvdKE0T+fnt7ZSx8NMwqPSkegnfXNmQXlzZ46fWyrtyfUMtdHXwfpkaEhj0Ob6pv9Wz3j7Send+7sp4/tKUpruSdCANFMX+EuY9YJiwvOdfrYpu1CqKXwdtU6f6UljxSa6Zu9+o96wpvT1N5++tg8KbxawtLgrfQVV/fYYzoLXz1crm/JvspAqKWgL8i2C4T1oUb6Zj+oxW8fEHn76mPrfbjHR/qslo30seEKyeEo26o0LbTMCwajyqzDH/OaiLUU3+3LtmRQXp0G+maPNE3vFyavRh8+60u0ssCTDzFscRTb40EUzfsrW7fXUaqPvaKIe0FkdIZZrDfgbwhZdjxetlon7orvhUr68DokDFoLh20SaHNeQZXc1uv16Zrej3cye9X62A5sBnk7UdKXrYdYju2l70Dpd9rK9LFxzkwvFt55G/BNJBNb+Xqyos/EDtmddxAv97K3iRV9HfadiAsY4xp9s0eaNO1dLq9OXwFb0Ze9z8PxBn7zsDnrp+QKcZEvdkwdeFqx3mdirzCsSS/msqlFTDHr9H2nFohN7wD6jCBrKWlNkpF7i6wj3azU6ktnAuX1UozsETtHpw87sdCwVH10WJY2Fir1zR6pOdr1r5K8A+gzOmuPdi5seeuOFMzV6zOG7OKkYclb2f6ylwwGeSd27HiZpSKKvkRtLEXvqj76DpYjVuasXN9Ml6P9fFqwV6rv0tZwmT71eJr+V3xnLhzHyPOs2CVtg5onC8ZLcqr0w4SQfPCl8BsDN7Y8zzZXJ8qX3T5ZxJi8e9vbuH1xGCr8MAHHo2XhhSw3vfVU0jdMDk3PxCML8qsHT/P8rzTLAzRQbqTPD9sa0q1wo0OLCucnsP8GPL9MElhyaqh+cOiXXKypibbQl9BcRmoZSplzemv5BzRz3aMQNDnaG1Veqb49YDnvB/ar1yxQft/66FvDjX73cXt4p5X3HvTRRKT0tzy3kkK08j710URCt1x8W7n+qUze4fWtrA+t76rRynvTN+ix1aa6H6HeGpRA+fD6wiDy/agzWMYsmrVG9RfdDt5UNb3D6HM9x3ZQ8o9n9rj3gUQtJdHKIfV14mJyiuIPxN4vdfL213fiYVme5Y0PUfXj87Y0WjmcvmhsFRL7s7Ifv98y3tWMeoSyjcotSBP7JOlPMFdu8IH027cPHnzShF8PdL+qrB8AAAAAAAAAAAAAAAAAAAAAAAAAAAAAAAAAAAAAAAAAAAAAAAAAAAAAAOCg/BektQdAfG1DoQAAAABJRU5ErkJggg==;" parent="1" vertex="1">
          <mxGeometry x="362" y="263.09" width="118" height="59" as="geometry" />
        </mxCell>
        <mxCell id="n_Ep3YgRqeOaTJRbYN4X-16" value="" style="shape=image;verticalLabelPosition=bottom;labelBackgroundColor=default;verticalAlign=top;aspect=fixed;imageAspect=0;image=data:image/png,iVBORw0KGgoAAAANSUhEUgAAAVsAAACRCAMAAABaFeu5AAAA+VBMVEX/////zAAAAAD/AAD/ygD/7sH/4Y7/4484ODj/zgD4+Pj/0ACzs7Po6Oja2tq2trahoaFgYGD19fWoqKjPz8/u7u7/0wDi4uJDQ0PFxcXh4eEvLy+ZmZlRUVEjIyM0NDQXFxeOjo7//ve/v79tbW3/+uZ9fX1GRkYNDQ1bW1uDg4P/bwCQkJD/88v/7K7/QQD/9tf/uQAdHR3/107/wAD/mAD/+un/iAD/UgD/4X7/55pzc3P/77r/swD/XAD/MgD/1kP/qAD/0zD/2lz/67D/eAD/327/hgD/mwD/4Xv/qQD/2Fv/ZAD/wq3/2En/qpT/l3//q3D/ABFYDPewAAAKD0lEQVR4nO2ce3uiyBLGQckZEMUb3sXLaLybmOsko5NkTSa7Oydnb9//w2w33UAD3egscXCfU79/Ii0I/aa6qrpokCQAAAAAAAAAAAAAAAAAAAAAAAAAAAAAAAAAAAAAAAAAAAAAAIB/Iav/xOBz0ld/3JwocdgkfflHzYkix+DpNunrP2biaat8SPr6j5l42sraadIdOGJiaqv8mnQHjpiY2srKMukeHC9xtZWvPibdhaMltrbyWdJdOFria6uB4QqIry3kYSK+S1tN03itq6Q7caSItVWQlL4vdf36WtH18J5XSXfiSBFpq2zPlqvlyTOj7M3b+ePd27dq2HZPku7FcSLS1on+p1dU2p8e04Tz65DpbiGc8eBry7jQj89E2rTL40VQXAWKjTz42rI56+0WaX396GmbvlOCbmELZQUOXG2ffbu8KHL1Lc1yEzLc14Qu/6jhaasEplqypvikTZ9XQ4dAHhaGq20gND1pv/i1TYe0hbICB65PCOj0qt0EtA053JCtC8hkDtCHY2UfbZ9D2nImELvzsFp7ti4W17Nybf/LyxYI5axZ+t6uJQ7XJwScp6592ekTZOU+8jylQsqjV67seXkt5qhJO/fP+pgUXG391ZdTRdYffdK+cexWlqPysEY95WO05+WpvqNU8x/3Mwm4PmHru317j7T1O4UvvJJNVB6Wt6W5HBWy5XYRf2yL9iwZBusykLa9+ng87k6Iuu/jGDJGs/kDHH9QW0XBDWyC+4K2NXnOSPtJd/bzI1ytMMCyTBvOZtZKCQ0wi6yTGfpI2yJRoVTA/qEfp68uBvol411+KZKAtlcvy89bBTlPNzKd2DaqyXeutF81Wdl+Ptk8B7XdCs5R62AvwBhKJiv0t0JtiSLFdzG3JLTdkhuLZ8gsnza2urf39HtN/0R87t1PVSfhWj0FbF5QVlijrqz3vJ4IbaVuKlXfNwhGkoS2TjQ6s4V+fr2Xlu53mvaQnv/8y4WCHIKj4WnA7/JXK+RSQk1KOaORN2s5R75KBaUTXbOSy+XIAT5tp/7fqTTxsYEfzuSMQd7IlQKNNTM/MOhpSpUGuqKGd5JDwWjrpQcf/0satBUu1FDdrtOPF1Ud33l4ch3GZ79H4a9W6ItiV6Vg0RBVpL7YmuCGHiI1tBt82l6iDffg5ozkZ/U+q6NZJL9oZdnGIc0zpu2KfT09epKJddCIxmireUsNPpBW5UV6db7Vv6Uf9KCCq2DCwFmtkMGJAa8PDTa9mtoKMZkaUZHVtoZaZ87BbebYvNNYmnqNnSZ7fgccC2feZv2HaetNGc6otq+eZVbn6a96wL6l021AW87tnSaKZJe8UxvIxDrqdD1VnV5LxS7aedJVVbVFMmBG29wY7eXkZ7Y+LWs4to2XGmnJwjOMbnGoXmLDpOLiYdNat8vtdX2SwuNj0cIHtdBJuu8TGkVE2q2sSbfO9/p5+kLbabecVaM4cAy551aLDTKeTTRIOySCoUxYZbygo23ObOOBXKDNOF/uEXO1DZgEphH6NLY/Vkauj8/gQEolNOiUBY+ApnRwWH/rhnnqb+3ZL7VMPO2VqZKevz0LJbnb0KpRkx3KPjyjwQnwwP4UzhMmHQT2ohPLyYpLHWavppOamSnGH5ed/wT2PMGQlUCe4K7icOM/kpsmYWhm9ua0ugb+MegSeKsVGlHTMEqz53jNsLYOvbXbjs227O7Tp0qhVK/nKpbB/gF/GNC/LEnkYE/E4956qdertKEu4cG727CRiHE69yn9BPOwfbStqLu1RVxSQVHc7zEHI/e5QH/94wNbMbbzZio8m0tkXra9X56ePaOgdkJtdHt6Sj5UvSrCBoWwq7PV6j5stTzDFfsEDM4yazWzK9bWMhGD8sLCAWqIB39pzCZjkoQ2x0REz5htP2v/S7vY9babrF9IZs6r2HUCNOiXNG4tJXvypV2kH4nZahtptXV23MduxbEMKTnyDFOkrTfnrVO5atRQHVCS1SXjgylTZC6pvRo9kpMN2274SkZbR+IlTQFQTvBBryJ+Ts/toq0nO5+wv8XVhB733CZbnd2trZRrEd9poF9sML+zQMrZR/rSaMsZLjVn6pAaU+0T1RZb5xIPeW0r/W/+cPcwP09/s+32hJkG8+A8XYJzd15tEEuU6hRnhXK53dlHW/uXDJIxs/MulHC1SIBjjszUPT9r9lVivBOiaLLa2l5Vk/Xrr275a36tY6vdRErLeypqIQhmUy9hjYpljLZ9kqrlVH9xHVmoSvz6wGvE/pZxHJVGAWcOLdvtJq2t/CKtfvPf373ZrnZIG1jZQLuFetIN344pMZLn9tN2TeXDRRvJt9OQCV7eWVnjlsg/2fYliWsrn0m/B26T/SFtonytzK0nkAlqOJqZzOQIe9I9tLWoJjPffMAxWOQppt6+7bAnqnToQEleW+3PvwLapv/k3ihzEdyPxAkoyZ4ccEwxGf843CuWYbvr4A9N3z9LpUO9zCZhuFgxDVxHpnUs2mrXQWURF5F2K1oWZtpBekDNKNOYXlbYMVxZe3lCg51cMdpmSoZdnyEOGh/QJ5rbpQO7FTvtCfW4zbqTkWX6roXnnbZciimeHQ6xtvqco+0D5+65Z7bC5YyknKjOCtl8eTGmbg+XvBZms4GShI47d8D/hqlZM/tkE9vkejQaDUmxzBn0FRz2rXKjOSjjMTFmzrLOmkYeWziNZINUpz/AI6GG7+J3baEryKjrg5pZKEiHRKhtaE0C4VuEVxDdL0MYY9/k1e43U79tjNzA49ax7S3/nNdzBEaXaZ06lpln96VzwRHZIiVzp+7oVH/VH1VjDJhtcA2Yd49XRNRT6ZVyx+t2K2/3aUE3OwOsALWhHJWzZ2/51n5MmQlDxSuDz7yQ5S2D6Die12T+Pe76BruSgznoYh2httUHrrZ3Qm13rhM120Orq1rDgjszbfaLXWuNDbbRbrvClUf1enFBNsttZ9FSPrhoySgU663xuuzP7gaLqdq1ZlnfjiNLbdWLfXYulx9Z3eJsIB0SsbbnXG0fhdru89h0plTKBBp4o5LfGt6Nu1/oHMK2Qy//EGv7yNWWt8yOmC08Zhbk3ewWnicJ8W7+9iXpnhwf4jwhuOY2Ok94BrMN8U75LTzvwCFizvvGkVbgEuA5HR7fWU/4wtcWni/jEVEH43hcgbeF5yK5RD3jr38NSPsmqNRA/sUl8v0JgZrCjagIBs+hc4l+N4X+xQtoDwJfKyu8GznAzvd+aNWLT/O787v5pwvOexPoPpB/8dn5ThVN1/ArQHThDQcoJIjY63013NfUuF9CIBMQ/z1LUEgQEf+9dkn34HiJrS28j1FI3PeIRj8h/f8NvP/2cMR8bzMUEiKI+b5xyL8igPfkH47VhxiARwAAAAAAAAAAAAAAAAAAAAAAAAAAAAAAAAAAAAAAAAAAAAAAADgW/gaUudGxZZakXwAAAABJRU5ErkJggg==;" parent="1" vertex="1">
          <mxGeometry x="687.6" y="263.09000000000003" width="132.4" height="55.32" as="geometry" />
        </mxCell>
        <mxCell id="n_Ep3YgRqeOaTJRbYN4X-19" value="" style="shape=image;verticalLabelPosition=bottom;labelBackgroundColor=default;verticalAlign=top;aspect=fixed;imageAspect=0;image=data:image/png,iVBORw0KGgoAAAANSUhEUgAAAUMAAACcCAMAAADS8jl7AAAAw1BMVEX///8AHTgADS+4vMH4+Pnw8fIAEDA+YakXK0I7X6hDZKp8jblheK4ACC0AHzkAGDUpxPS1vdMwWKX+/fmssLYQJz83XKfP0tWPlZw9SloIIzwXLELm5+nz8/QqOk7JzNCVosTAx9lXcayptM5w0vaMm8DM7vwpUZzw+v5Pa6m4wNVsdH96gYsAACtNWGc0QlSnrLJbZXKUmqGGjJXa3uafq8lTXmvS1uJugrPW2uS35/qi4PmR3PhGyfVj0Pbn9/11ibewUmd+AAADsElEQVR4nO3baXOaQBzHcUVuAygNJIrm0qRJYy5jmrNt3v+rKpfIApKkztRh5vt5kADyYOc3u3+OXVotAAAAAAAAAAAAAAAAAAAAAAAAAAAAAAA+61Dedguabu9GdW633YhGG91JwVBvHxxuuyHNtS95tn577ejq3WjbbWmmjjf0pP1oQ7d16X7bzWmgvYETSMvuN7e8ob273QY1jnJpBc7NXm5fEvbxoblU6ndxv7xUttSgxukEtm7dl24Ld4dpfcRHFoO11+H9sCx6nf/doMYZX1o194PR/aIzoCzWmqvesF33XLJ30w4syuJ6cSGcCYVwMTl6OBZO2rWHnjr/r+1qjkX0QPJTKISPJ65maL42yR+U7y3dDiiLFWalQjh6ck3DvzB807h4FH64U3VnwIAuUqxgKBRC+dQ1NaPfinqjb7o7Qgc9vAkcnluKFNUWhmff10z3Id05Ng3TPc0XSlnl2a9EUdu5DJ8vwq7XzY3WB1fT/H7ufIsMS4QMu67pnzwLv4/jY6sBLdlcVYryGZ4U+lxiEZXFRbojS20yLMpl2NWMbuUkSt83zXSTDCusMhy5WnfNSce+kd4qkmGFVYYTzR9nh1+m0+nrn2x3R9tJNsiwwirDU+NkefCsl3hbHpgYfrJBhhXGWYbdZV+LI/w1/R3+naZHJtr3ZIMMK6xCyTI8D8M7i/6HKb4kh/qGWzwdmYoM33q9tBL+6vWSjTDDb4XTkanIcFUHz5IOSYb1yhmeZyM4ijPZJMM6ZLg5xvLmuKZsjnubzSncY2+s9lnvdXnggX5YI/fOwfBXL7Bf3qbT1/Nsl3cOdfLvvsz3NSfx7quW+A72vfId7MTlHWwdYS7ASCZFRY8XBnMBtYQ5qVPX9MVp+ZbyLs5JWWRYIs6NxvNPT7lp+aNowv5H7nwyLFMKk+59QzPdo7Qs/tC0whz9WCXDEsUK2sJqLjnuen05XSvyJKwV6QSsFakQreYSF7mOwhJouIbrF4tjskJs3EJRsppLWOT6vONqmuGbwkV6XF4hhszhQbu49j9awyleoOeq5/EJX41b54NFrtFS2asZn5LWiRe56usuuaNrVVev+XbvI6OfYVm8XlT8Is+udJtC+ClhWdStWemye+tQCL8gjkssi2uCxVrxsA1WwzYe4AMK4dfkLx/y/RVfU/yTzkH6xc9um696/ll0O23vD/i6bBPRF5Be8QEQX7QYSEMK4abogwAAAAAAAAAAAAAAAAAAAAAAAAAAAACAz/sLuLZKlfIEEysAAAAASUVORK5CYII=;clipPath=inset(15.52% 33% 15.52% 33.33%);" parent="1" vertex="1">
          <mxGeometry x="154.54999999999998" y="90" width="90.9" height="90" as="geometry" />
        </mxCell>
        <mxCell id="n_Ep3YgRqeOaTJRbYN4X-20" value="" style="shape=image;verticalLabelPosition=bottom;labelBackgroundColor=default;verticalAlign=top;aspect=fixed;imageAspect=0;image=data:image/jpeg,/9j/4AAQSkZJRgABAQAAAQABAAD/2wCEAAoGBxQUExYUFBQWGBYZGhkcGhoaGxwdHBoWHBYZGBkaGhocHy0lGxwoHRYYIzQjKCwuMTExGiE3PDcvOyswMTABCwsLDw4PHRERHTkoISgyMDAwMDIwMDkwMDEwMDAwMTAyMjAwOTIwMDIwMDAwMjAwMjMwMDEwMDAwMDkwNjAwMP/AABEIAJsBRQMBIgACEQEDEQH/xAAcAAABBQEBAQAAAAAAAAAAAAAAAQIDBAUGBwj/xABDEAABAgQDBQUFBQUIAgMAAAABAhEAAyExBBJBIlFhcYEFEzJCkQZSobHwYnKCwdEHFBUjkjNDU6KywuHxY9IWg+L/xAAaAQEAAwEBAQAAAAAAAAAAAAAAAQIDBAUG/8QAMBEAAgECBAMGBwADAQAAAAAAAAECAxEEITFBEhNRBWFxgZHRFCIyQqGx8FLB4RX/2gAMAwEAAhEDEQA/APZoIIIAIIIIAIIIIAIIIIAIIIIAIIIIAIIIIAIIIIAbDZiwASSABUk6DeYSYsAEkgAVJNgNY8r/AGge2n7xmw8kkSbLWKd5wG6X/q5XrOairs6cNhamInww83sjN/aB+0CbOnpGFmqlypSnStNDMWKFZ3oFQEmhBJNw3c+wXt1LxiRKmtLxAFU+WY11S311KbjiKx4+jDjzW048eELLllJCnIYukihBFi4sdxjmVZp3Pan2WpQ4Vlbf3Po+AR5x7IftFYJl4w8EzfgO8A1+0Oo1j0SVNCgFJIIIcEFwRwIuI6YzUldHh18NUoS4Zq36ZLBBBFjAIIIIAIIIIAIIIIAIIIIAIIIIAIIIIAIIIIAIIIIAIIIIAIIIIAIIIIAIIIIAIIIIAIIIIAIIIIASEgeMDtX2vw8qgUZirMioB4qsPV4rOcYq8nYtCnKbtFXZvtGZ2z2/IwyXmrY6JFVK5J/O3GOI7V9uMRMOWXlljcnaURptkMPQGOany1KUSslzcqLzPU+L1PWOSpjYLKOZ6lDsxt3quy6LUv8AtZ7YTcU6AMkn/DHiV99vF90W43jnFSaOqqfq8aacLqB+M/JQuPlxEPRha0qrf5CeB0Px5xxTxF3dnvUXSox4IKy/fiZBlUdXh+vFw+jC90bmqd2vM74v9ooMpJWJZWsV7tNQa1UG3Xf4RR7H7R71bLR3a7oSaBe/KFNtDeN8WjKUouS0LSxsIyUG83/ajRK19B+nHhGz7O+0uIwhaWp0k1lL8PFtUHVx6GEmYRlVDTDYaf8APO/yhq8KRQh1e8LAc7gcNYpHEWd0TUlTqx4Jq67z0zsH20w89kk93M91ZoT9ldjyoeEdEDHiKcGbJLp8xoCetifRo1Oy+358hskxQRZMtQdJ3MFW/CRHVDHLSS9Dw8R2Wr3pS8n7nrQhXji8B7fGiZsmrVMsu34VN8418N7YYVYH8wpf3kqHxAI+MdUcTSlpJHmTwlaH1RZuwRTw3akmZ4JqFHcFAn0eLjxspJ6GDTWosEEESQEEEEAEEEEAEEEEAEEEEAEEEEAEEEEAEEEEAEEEEAEEEEAEEEEAEEEEANitj8aiUgrWWHxJ0AGpO6H4mclCSpRoP+gBvJNG4xx/bWKVMVmmDYNEJuEvTKftEtW2m5+HG42GGj1k9EbUKXMlnpuUfaDtybOdKnRLPhSk3++dTwOz84xl4Qg7QJJ9z/cPztG2MEqWHbOpVGuRrlHvJDVN6a2CIwWktW0aqN0gcvLuA50NTHz08a5u8nfv/tD26c4U48MFZGOMLo3SWzfiB/KphqMPVgz7k6NvK2I5AxsnCgPmBQlL5lgmp12xpvJ5Q1WFoLKfwIUAzby1ONqU1vT4gnnXMlUvUtzLn/MrKP8AVCuNXYjkk9Eja6NGmcIaljs3Uk24ISWHwPUxGrA18Kgo1YpdhvWoBzyfhW8WVaLKufeUxNQzOADVgzcfEaHk8KvCoWkpKUqSbggzH/E2zzUD0h0zBINXSz7NwSfspdm4kH0rFeZ2OjSjVJQsgJOtWAN7Ui6lHq0VvLbMZ/B1IfuJqpaSPAtpqDyuUj8XSEyz5bBcnZOsteYq3nKsgp/rJiROEnJbLOnJ3AjM+8MylNzIIhZczEp8Kpa94AUk8lKlEnfU/wDMX4290/G9/UpepHTLzIf36R/ePKqAEqBludCSsAK6OOJi/Llg1StCy1X8KRz1PQdBEP8AEJgDTZKa3yqDEdAlRN3BJ6xGcDhlu8sJNHKXl9RkYnqTFZW3v5WfsV+ImtfYnVgg3gISfdus8ADbp6CI1YeviIV9obKB6Bz9WiRPZagXl4iamjMrKpxSpUoZgOR1h/7vi0inczALsVS0i9SSFqWbdYrxraS88v3l+TSOLtqVDhiwZlJem9Z360/7oIklTpyHCFzEe8ULISkbgAanmOO4Q5eKWD/Nw8xJNM4CVdEJSSv/AC+sJLx+GJCSsy1Hwy1kpUS/iUJlfrUxpGpUWcfxn+jT4iElaX5L0j2sxSP7wkHwpWkOeJJALfXCNLDe3c0f2kuWoAbRSVIr1zfTRnIk3yzEmm0qwA3C/wAue6I5mCFHlfdAuT7xNFfpc1tePaFSOV2UlToT1ivLI6fDe3UosFy5iCeSm4li/wANY0MP7U4Vf98lNW23RV2Z1AaxwK8GmozKT76jQD7IzfrS+sMOCNCCPsJIanvG7U4UHEtHXDtOW9jN4GhL6W1+T1SVPSoOlSVDeCD8okjyRGHUkk1DVUtJudwIr9ARoSe3cRLoJqwpXhSvaYDeFg9W4COmHacHqvQwn2a/skn45HpYhY4jC+2k1L50IUlN1B0l/iDGzgva2QtgrMhRFlBxo9UuBfVo6aeLoz0l6nLUwlWGq9DfgiHD4hCw6FJUN6SCPhEsdRzCwQQQAQRk94ucpfdzChCDlzAA51jx3Bomgca5hpCwBqwQQQAQQQQAkEVcbj5cts6gHsKknoKxT/8AkckPmzpY1dJ1saPTjGUq1OLtKST8Qa0EZw7eke/qR4VXGlrwfx7D0/mXdtlWl9Inmw6r1FzRhk2YEgqUQAA5JsBGRO9p5IGxnWWcABnHNbbx6xidodqKnEZ2EtXhSHYK+0dTusxFnjCtioU431fREcSNDF4wTl5VBkeQHzUqo7lbhoK3dqWEKSs56pr3ZNlBtonR2ccQ51IFJc8zAZRNrq1LWy8dFemsEyb3n8s3DFbbvLl5s/BiI+WrU6tebnPV/hdxuqyirItyJwlvMU+Rtk6pT+eYtxGyDviSdIpmBabMNxUW1FiEpF6OwrWKacSVKCFeWr++pnHUCpHFJHBJWIKCqYKoDgJ4A7RTuJULWLCzvGDw075LPp16FlXXUty5iQoIVspQxJd0k3SCrT3i+rXeHLw6VDOAyphZBFNm4Ja9HWX5aCKfeBScr7Szt7wLqHJmSDxEAXlKlgkBIYNqbqoaV2Ra4MRyGu5k8/MtKwoDso5JYcuHdTPozkAg6uVDUQ392meE5cyqrZRom2UU6f1G8RS8SsZUEJV51aOXcPe6i9vK0OHaGYeFTzCwIILSwDvII2XPNcVdGotrmixC6jJiZhZQT4tmXVLBNyq+rP8A0iIF4UCplEpSWAyhRVMdncPV/i50i6e0Q6lJSp/AjwsC7KPi94VG5EOGNQk2VllhhRyVkcNWPUrO6FqkdjSOI70ZgkB8oUQs1WXsNEgKtw3Xvdf3WgJDp8uV0rU/F3rzD3jTMyWoCWopL7Ux6PwGYWLN91JgMsD+Ylw9JabgvYsbPejMnrEOckac+5mpwm419xLJW3EtUc2FbmGnCaGh93aUpuKAQ4+6W4GNNSgNlQ2zUzNEiwL3TqwtdyaupTokZhrM8wPBvEeTNZjUQ5kirq3M6XhSzgFjR6gPxdYqNysvWJU3Ys4FiUuPUKI6ADjE7pNU/wAz/wAl/VLMroAOURmZSinAt3bCX0VeWeSmiybepi5IVFbZqjSpVwCppYjgkwipEtYyFCVA3QihJ+1nofX1hk0sWLAnRRzKVyB2V/OGmZQ3KRoqiAOMrxAbosovVFeOxWmezsgnYAQp6BBMtCVbzl2Jih9w9LxBMwmKkgqSrv0UdRZCyN0tSXQrhsJDm9XjSTNcUdSRurKHNJ2ugcDhCypxO0mredJ2E72Qbnk5vURpzKn3Zrv/AK68gqltCr2XiUTgQgkKQWMiYkpmJVfNMG7UFiNXJZrSsDcFG151psnVg1X5jidHw/aGakYnBzUl1qmGWtdApcpSFKUCDokgEGjG13joBPDAOUpektQJKzer1O9geJ1ia9JxUZR0efh7+niXjiHuyqnCJLFCjlBGVJqVK0LUPJzxME7CLDgpClKFSnaCU8iObULlzoYvzJ9XmIdZ8LFwkalxVPE9AYACNlCsz1Wp6twUNSLXYa2fm45r/vubLEMxxgZagSHShG7VQ3g7vUnlDP3KYmwClKs10gcDSj76k8Y3CqVMuAlKBQGhpqCLpTwJryERGWpG0NpS6JB8SRcA6Fqk23OaRfnS0/D9zWOKMjDnIpwVIyCpBKVO2poWAqd5PCNbBdv4hOUFQUSXZYfKniQxdmFzUxI0tTSy2VNVBVyq4d712ieW+E/hySHGZKph2WPhQNWUC1HPMgRtTx1SH0tr9ESqU5/VG5el+1hY5pYLFgUq8RtQEUrS+hiLtD2pWs9xIQROmbKVEghDiq2F8o2mp1tGdi8KmWkrzHLL2UBnzL8O/TwvptxqexPY5Qkz5g210HBLuT1USzaBJ1MezgMVXxE7N5LXI46qoxXyrM3uzcEmVKRKRZCQHVc7yTqSXJ4mCLkEe6cYQQRGtYAckAC5NBADnjM7a7WEkMBmWRRO4e8eF6XLMNWqdqe0iUhSZLLWBfyi7V81janERzc7GMe9UoqCmzE3ewLabm0pZo5cTWcY2hqZurG9kT4rFEErJ7zPUvVw3i4IANRYPTcYJyWAzrLeVTsEk+W9Umwcl7boYg92SpVlX3IO4fZL+p40Yke+NkvlBsh9Dz36W3R4qwsm+Ju73ZV1kRLLOxUAGBBcgbqkPl3Kuk8HAacQaupq6pZTgXZxtjUWULbolzqJYM4fKpXnTqCPz6s0QzKeYDTaoxvlUxcNooW+foUsN1RhKsSCad6bggh2CjZQvsKdjxJ3vDnJcKLJUWUBQpX969aMQ1WOsU1M/lJr9kubggb9Q7KuKxIiYmoJUzMQTdLPRWqkvcGo3m3bHBReiMXWZaMwgBIbvE+HQNvLWQRQ8bVAgzMkKTVbm/mWbpVwp0AB0hhZIfzJ1/xEnjqS3qN0OSKib5SLbh7/AN7fuHKr/wA9e/sV545ReWACcyiz2IXdSuBFT6b4XvKplHRjwIHhHAuH/AejQgkmaOTb06qHGlN4A30RCgZZXQ52I6sEDhoeBJij7PWj8UyfiGPUqqpldmiWvS7c1Ub7IhUzFDIg7TbSiKEkF7GlVEG4taIlpKMiC6kir6slvE19ogvwPOF7xwtYNzlSeRyj/OVRnLAReVSPg/8ApZV2vpZKcSkhRdis5Q7hk2cHlmV1hV4lIKlAp2QEpDjxFi3LwDoYjoCPdlpf8vglJ/qhssHYBoarVz3eqv8ALHO+zI7SLrFPdE6Z6E+dJEtL3DlRDerP/XAmejZBUNnbWdMxJI6PmPDKIgl1y/aJWeQbL18A6GEzAgOR/MOb/wCsM3QjKPxGMZdnxvm2aLEPoWUzkqAGYPMLqDhwilObMnmSYkCmeYHDbKAmjl2Ja1TRyLB9Ypd8C5Cg6zlTWyQ9f9SuoEOypBJGylAYZfeZrasKDiTGEuz+jNViO4ud+sbBqVVUtNCBZ26MOVqQAgg92oCWmhHlJFwR5QNbOb2INQTFpDGql1JF0ij8CwYC1WpCslZZBYJYEjfogg3AuQeHGMngGtrfot8QTqnBVVPL3D39z+8Nyb+rBFziKqPdPQZbK3AtrwDHcTEBxAO1MbL5TodMzaE6DjdzAVKTUjOTQJJqBuBsaXJ9TQRZYLaw548ryhiEyknQgKSo/wC1XCr8Yao2JDNYzSSQfsLuORIPARQ7T7VTICWeZNWcqJQFSdQkH+zSNXpSKsvs+bNLT5pB/wAJBKZaR7veDaUW0QQN41jaGC3ehHNyL+N7TlS6zZiQdO9UJavwjz8m6xF/FjMP8qTNmqailDuUhqgkr8QfUBUGFwEmWTklIBJqVAZCd4Xcnm5pE6lPd1cFFkD7q7+rnlGqwkVor/39uUdZFfBYRSpnfTVCbNCSlIS6EyUk1CHqpRaqqEtoI0kziXZppscwbLwbp4bmjm0VSt2BdW5Io3KY7K5PzhSt6KNtEUmJHFg5H3QOsJ4Ti1RHPLkmaaiWrMfNm8u4bwdwqPWqoUC6ZZKT595OvMnVQ5O9qZXQE7KBQKSwUOBbw9H6QqlOAFbMsWWKU/2DjrwjGXZ/97krEFwz0qYLAShNvdKhYg6AacbWcvGIWnbO0TRCVUUBdn3lnLjS9IzjiVKcZcyE5WfZzk0SGa2tgLG0OSpYUSCGfIkEEh7qYvRm/wApDRT/AM7iySL/ABNjQVOQQJajxmFQYHVntU6PYNuhisSAM4WQV7KGUaJ3hL3N2b3RFElRBTmopRcgVKUtnJd6Uy8mh+DwS5ywlAdZqSfIlVHJ8oShy2pUGi8eymtX5BYu7slmXOxsEcVMSDmEqWxIKn2S+UP7ykip91Zq9T3qUtQRT7L7PRJQEIHEnVSjcn0A4AAaRdj2cNQjRjZGt29RYIII6Acb25jsTKXlXNVlqRlCU5kbwQHzJ1D/ADEY87EKVWYsraisyioFBssPbj+LcI73tHAInIyqHEHVKtCI4LtPCKw68syWwD5FAApUNUg3Y7vKeDPeEOJ2uefiVKHzarxGd5oHUtGgqVIO86GmrVTDpadoKLFKrNZJP/tv384hRjEBmPh8IYuUaoZncN8E8YjVikrdIcS1WNi5uke6Cavd3FKRqsEr5anE61ld6FlAc5TVA8L+bgd+XTffSBn2VVluwJ8x3K5Gj6n4wzcYG7pRAZgVWAAsxHhX8r7hFaf2xLAylaChmZwCoDRh5eNH5XusFGP9uV5zloXlORtE92KhetNX0H2tRuuUTvAA/wDIfCofaFzzNNxq0ZR7ZSTQ2qBXK28BSdr4Qv8AEAauK13f5bHmaxpGhFEOcuhoLOmZ9GCXDbgS4Wn7JLjhQRn4nMmqQW3MWe4poebG7vV1VjAdaXaw/pS4+IiCfi0alL6eH5qJP+rlGygkVvJ5WFwnacssQyTpSj+ZDiwOj2bgIuy+0wTkQTlXrZjqkbn3731NOfxmFSSVoOVR9FB3ZmD6Vo0RpxK0OFI5kFw/vBrfXOLpp5SNFh0808zqhiQGkONq33BdP5Dg/uwkzEhEwXKRtKA0JcAga6kjkb35hGOzOpSnWGLi590jdpFuX2iSlRV/afMmgI4CnpFnCLVivInGSbfcdIZ4IVMFRZPFqD1UTFcy2KQCXFSRqWYEixJcmu6OVxWOmypakyiXIsK7Vkkbi5d/s1hOzsVMnEqxUwB2SlAKkjc6gjZNyak8hFHZfI1f9Eyws186eX59DpzjC1VJ21a02RbUXSkesKMXnJGdG2QijeEPm1P2/hGblwiMxSiTQUASmqjXdXy+sQzMRhhQSETGSEh0JAKi13D6DTzGKuhH/FER45aX9EdD3WZ6k5jkFT4Q+agp7/oIesJDkMnMciWYMA+Yjj4vRMcqjDJUQEJEtmSO7KkVZ1KJSQ7N8DEyEZS8vEKeqUhQE0BNHLtmv9rdvinI6K3gaNW3v6/6OiM5NSCn3EBw3EtuceiIcJCQwFEoqSCzqu50PvF94jCk9tKltnlZksyFSwSGaqlIO0BTTNQcY0sJPlTUjuVhSbqUk3U7sob3qQRS0ZvDqWV/VFHOUFdqyLWdSRmIcqYJpUCrAp11UWrelIDKCmSk6OpQuQ5cHfmL0P2oZLxwDrX4QGSRu3kcSzdLPBMcDMktMWbiotrvADV4DfGfweeS8hz8rkveudtglNj5SqxJ3NZjq+6Ipi+7SqaaAAsk0ATdgfLZzpTg8SImJU0pmYOoGrjQP5gTflW8Yfb8zvpn7sgko8U1vJKB2kg6KWRlA3BWhjOWFSWnka06nE+7/Qvs7JM1SsSsnvptUaGVI8uUH3r6i12MbKhQpIBlp8R1OpBe/E6mm+GicnuywJLAlh4B4QATcgOA1yDvgUopLMciAFEGrHQOCTRnsdIryYXtctOpJu4r8SPdlnXmDX8hCKQahqi7Ed2nmk3OtvSD94e6dpXJQQkcN9d1zuEK8thlCstkgZhmVfMeAYl+ZrSL/C9xnze8hW9qsdGUkHlLYgiurREqcQGApoAQK6hLOX5KFotM9gtTlnds6q0qpwgV9ObxTTlAJDuWAzq2yKkDdLDF+XrV0bbF1O5UPaJBzd1MB0U2Y8QS4D0sR1iyApipSJi00dEuWpQTqXCAWUSyXJ0VWjm52D2IvETAfCEsFq0QCAooQDr4RwGZ+PoOAwSJSAiWlkj4nUkmpPExlUhfI66VLiz2PMB2kzZhlUxUy8wIUaZiMugoBu1ieRNKv7MAkJYZSVEPdRATVRpQP8Y9RaEaKRpxWxq8Nfc4LA+zs+aWKe6lsEuqqsgulKC1TYk0ZrtHY9ndnIkpyoF6qUfEoszqOpYdIuwRc1hTjDQWCCCBoEEEEAEQ4nDoWkpWlKkm4UAQehiaCAOX7R9hsPM8Cpko0qhTilqLBA3UalIxp37N5znLjKHfLPxZdT6R6BBGka01ozF0Kb2OP7O/Z5KQP5s1c1W8JQgDoxJ6qMWf/geGptTKcU/+tOjR08ERzJ9SeRT/AMUcsf2fYQhlBag71UPyESy/2f8AZwJP7sgk73PpWkdJBEOTerLKnBaIxpfsng02w8sUa2m4bhDj7MYX/BRuDOGHBjSNRcxIuREEzHAWBMVcg4x3RlzPY3CG0rLyJ+Rd+sZuM/Z3IV4FM3vJCugZgPSN5fah0TEC+1Dr82ijqSWibKtUt7HlXamClSZhlT5a5UwEt5kKTWqVjxIO/JTc8RI7DQsZpK0qym4qAOacpduEeie0GEw+Kl93PS7VSoHbQrek6H4R5n2z7LYnDKKpf81ALhaPGOaQX5s41pHXh5uorO6ffoznnCN/lY5fZkwOQgrZqoXmpxcsOTxUmygmiu8TlYuU0YjeQx6GEwvtdNB/mBMwCm2+ZPIj8w8dB2f7Q4aaQkLyKOk2gPBJQwPUvHU1UiYyUo6r0MFGHB8K3rmdhUcuHPSFUnLXvJepGajk/ire0dicOAHICR7ygFDoAARzU3WH5GDl0p998z/hPhHT0iObIx5rOImiYPEH3VZwakgECpMN/iJSWUCmgfZGVtATUBPDjHcGQGchKU+8oZgRxSfDzeKOK7Hlq8IUDXwhLHk4AWOF+I1mNSRZVY7owJPapNcyS/mLMOTH5whShaswKpam8aSxVwJsoV8wYxJjOwlIqlDh7pOQ8iAb8IpnDKGquShcfCsbcaf1IsnTejLyu15obvEiYgPtJZCuBKSWOtQRvaJpHbmQ5jLmtonIqxOhFASa3b5xlLzC7ZbgPcbx+kSYMzFkBKFFL6sEg61JvwEOJLch0qbVrKxoTcdNmh0AS3VVSiDMB1ypFEsLEndSLfZUhKJYltsrLkhzMmK8WZZ1ozb3ToC9BcoSiFrOZZDBAsEmyla8RZ3TupZR2mgbn1JTUvv8J14jlGM4ueSfn7FWlFWiro3MMslgEilcgNaMEghtlKRoWs7RJLWKJJZjmWTYqGgNizaGgSBGEe1wQzuOLrT6JAYwqu16Mqo91ZAT0Id+SorDCKO5lJzf2m3PQ4qNpfQpQNHuKEDmoxQm4lQ8JvsocWSLkM27/TFI9rGrKuGOajCtE6vXeYrzu0hWhFGDNsp1NWblwHGOqKSVjJUpuV2si8rGzD5mDEDKGaWLtzLfDdGv7P8AY8ycoJFgwWs1yg7Sk1vRkgcTFb2c7BnYhQWUKlyKbZbMpIqBLQaX8xpahq3o+Bly5SAhCcqRo2upJ1J3mOKtiYRvGOp6FHCSk1KWnTqTYLCIlICEBkh+pJcknUkkkmLUQpxCT5hEoMcV7npWsLBBBABBBBABBBBABBBBACQsVl4sDyq6ggepiA4xR8OX58ImxVySL8NUsC5jNmGYfM1WpT1aK6sMX2lDnU/J4nhKub2RqqxSRqDyhpxiYzZeFFXPKl/jTrE8vCJp8eHTWKuD6/gcUun5LJxT2MMKn1eHS8IOPO3wMSjDDjEcK3Y+ZkAQPr6+vhAqVToT6fXwiUAO27eWPQAQ8S/oU9dYtoOG5QxGHvT6q35fHlFKdhEeYH6b/n4ddycLECx+GtNYiXJSd46fqKdIspscKRzk7ASCKg/lb5P8IqzOyJBdlqG7SjVOtQdPjHTTMAg6p9W/WK8zsdJ1HQ/KNFUa3Fl0OWxPsXhppfvJZV9pO16s8Nwfsj3Kv5KpSSxqkJBpvUQ+uu6OlX2FwPw+vSG/wZQ1PQH5tFubLqQ4xeTRgq7HnhlMl2dwNCWc6V33irMwM5FSg5quoVA3ugctN146pGAWmx9Sf1idEtQuX5B9X+dYlVmjCphYTXQ4JU0gvcg38j6unQ8Q53mGLxYa9PdT4Oix4T16R3eO7IlTR/NQHrV8pqXcnVtBbhHOdp+xS6qlTQr7KtjpmAyrPNukdEMRTeqscU8BNPJ3/ZgLnpfQH1W257K6+sQzpgHBt9DyAFAPxAQztHs+fJLTJS0DgMqDyIdKjyMO7O7HxE/+zlKCRclJly82jk0LXpwjZzja9zOOFdyJKk3CbHVxYOS4OnADc8TKwk/ulTpchU0pLbKaJe7JFTlS42XqouQzx0OB9lRLrN/mMBshwmhetHU5qbDhG1+/5AAEEAUAFAOkc86z+y3mdEMNZ/MmeNzMUVKKlElRJcsHexZrNbLo0CZ274C/Ebj9cY9O7YwWFxNZ0h1e+nZXw2kkE8jHPzfYfDE7OInprZQSr5AHrGsKyazVjpsuhyffG7nm7eoF4Tv2DuAOHhP1wjtsL7B4NwVYier+hL9cppHS9i9g4HDkKlSUZ9FrJWsHeCt8vRoieIUdE2EkcF2B7IYvEsUo7qWf7yY4BH2UkZldGHGPQuwPYTDYdlFPezBXPMAIB3pR4UnjU8Y3U4lJiRKhxjgq1alTJ5LobQUFoOzQhPCHgPr8H+UL3IZxWOV0ka8TIFFOrRG6eXWLXdjV+ghuQaj66/pFeQupPHIgCzopXz+cPTile8DzH6RJ3KN/16Q1cpG+HJktJMcfUVOMOoHQ/rEgxY3H65RTWuWPN9fnCIWD4UrPIFvUxV8yP3J+RCmnsaAxCd7c6fOHhQNjFOXKme6BzP6PCnAk3WR90AfEvFoTm9UWsi9BFeThEpDAq6qUfmaQRuQWIjXKSbgHmHiSCAK6sKk6EciR8jDRhALKPVjFmCBFkVjIV9k8AMvxrC1F0k8lOPiR8osQQFkVTMHukdFfkG+MKmYDQKc8D/zFqGqSDcPE3FiA/VjCZeB9BEncJ0DciR8oacN9pXVj/qBhcjhG14+phM53+lfmYf3Svsn8LfF4CFap/pV+rQuRwjc5/wC2/SFz8vT/AJhMwFwsfhf4pf5wiVpJuPkfRUBZigj3R9cx+cODbj0J/Iwik8R9c4Ah6/P6MBmODe8eT/rWFKTwPMfnDShUMA3fXoIC44BPuty//P5wndA1SfrmljCZlWf66wF9Q54j9IkXGKkK/wCmb8mPFniGYhW/delrXqTS96RZBNL1tW/J3EPQSdbaEMfhC5JnTFLDvqQai5FutBEEzEK1Tq9Pqo4GkbBQB5Ujr/xES0jd8z8zEphmQrEpc5pQPCw6AaesRzFyVU7sIbdWu941VSU7h6RAvBg1aLJorxGf3UhQoFZt5DJ+ZIhf3KX5SbP13Pu405RbVgU313/QiKZLQLqH11hxd5VyW4IwQdkr1Z+jvw3dBviaTKXRjupxIdufDSIJaFHwJWeLFvU0izLwM5V2QOJc/CkL94unoiaWpVOjdbRKmbq7cSeX6iI5fZB801R+6yf1ixL7OljyvzJPziraJUZeBErHJ3udwrxqPq0PMxavCggbyw9QaxaRLADAADcIfGbzLpdSinCzD4lBP3a/MQHstB8RUrgSw+DRegivCtybIik4ZKfCkDpX1iWCFiySWhIQQQRICCCCACCCCACCCCACCCCACCCCACCCCACCCCACGkPDoIAh/dk6JA4ih9RCdxuUsdX+bxPBAFZUhei/UfoREapa9wP4i/xEXIIm5FkUTmHlUPQ/Iwneje3Agj5iL8ELkcKKaVjf8fzcQ9Czp8G+O1Egw6WfKH3ih9RFbFyAPeqQ+0qvxgLWHzJwFSwyuK8gWY9NYiOMS5ALmhISHPp+VYkl9ny75AedfnFpKQLRJXNlRMxRtLO+rDTcawhw8w3UlPIP8S1YvQRV5luEp/w5J8RUrmSPlE0rDITZIB3tX1iaCIsibBCwQRJIQQQQAQQQQAQQQQAQQQQAQQQQAQQQQB//2Q==;clipPath=inset(0% 19.33% 15.03% 18%);" parent="1" vertex="1">
          <mxGeometry x="271.84" y="420" width="76.32" height="49.32" as="geometry" />
        </mxCell>
        <mxCell id="n_Ep3YgRqeOaTJRbYN4X-21" value="" style="endArrow=classic;html=1;rounded=0;exitX=0.563;exitY=1.034;exitDx=0;exitDy=0;exitPerimeter=0;entryX=0;entryY=0;entryDx=0;entryDy=0;" parent="1" source="n_Ep3YgRqeOaTJRbYN4X-15" target="n_Ep3YgRqeOaTJRbYN4X-11" edge="1">
          <mxGeometry width="50" height="50" relative="1" as="geometry">
            <mxPoint x="428.43399999999997" y="350.00300000000004" as="sourcePoint" />
            <mxPoint x="523.190427784047" y="427.23" as="targetPoint" />
            <Array as="points" />
          </mxGeometry>
        </mxCell>
        <mxCell id="n_Ep3YgRqeOaTJRbYN4X-22" value="" style="endArrow=classic;html=1;rounded=0;entryX=0.5;entryY=0;entryDx=0;entryDy=0;" parent="1" target="n_Ep3YgRqeOaTJRbYN4X-11" edge="1">
          <mxGeometry width="50" height="50" relative="1" as="geometry">
            <mxPoint x="570" y="320" as="sourcePoint" />
            <mxPoint x="661" y="390" as="targetPoint" />
            <Array as="points" />
          </mxGeometry>
        </mxCell>
        <mxCell id="n_Ep3YgRqeOaTJRbYN4X-23" value="" style="endArrow=classic;html=1;rounded=0;entryX=0.877;entryY=-0.033;entryDx=0;entryDy=0;exitX=0.423;exitY=0.985;exitDx=0;exitDy=0;exitPerimeter=0;entryPerimeter=0;" parent="1" source="n_Ep3YgRqeOaTJRbYN4X-7" target="n_Ep3YgRqeOaTJRbYN4X-11" edge="1">
          <mxGeometry width="50" height="50" relative="1" as="geometry">
            <mxPoint x="710" y="330" as="sourcePoint" />
            <mxPoint x="700" y="410" as="targetPoint" />
            <Array as="points" />
          </mxGeometry>
        </mxCell>
        <mxCell id="n_Ep3YgRqeOaTJRbYN4X-26" value="" style="endArrow=classic;html=1;rounded=0;exitX=0.563;exitY=1.047;exitDx=0;exitDy=0;exitPerimeter=0;entryX=0.383;entryY=-0.035;entryDx=0;entryDy=0;entryPerimeter=0;" parent="1" target="n_Ep3YgRqeOaTJRbYN4X-7" edge="1">
          <mxGeometry width="50" height="50" relative="1" as="geometry">
            <mxPoint x="575" y="133" as="sourcePoint" />
            <mxPoint x="670" y="210" as="targetPoint" />
            <Array as="points" />
          </mxGeometry>
        </mxCell>
        <mxCell id="n_Ep3YgRqeOaTJRbYN4X-27" value="" style="endArrow=classic;html=1;rounded=0;exitX=0.075;exitY=0.875;exitDx=0;exitDy=0;exitPerimeter=0;entryX=0.803;entryY=-0.025;entryDx=0;entryDy=0;entryPerimeter=0;" parent="1" source="n_Ep3YgRqeOaTJRbYN4X-9" target="n_Ep3YgRqeOaTJRbYN4X-6" edge="1">
          <mxGeometry width="50" height="50" relative="1" as="geometry">
            <mxPoint x="470" y="163" as="sourcePoint" />
            <mxPoint x="565" y="240" as="targetPoint" />
            <Array as="points" />
          </mxGeometry>
        </mxCell>
        <mxCell id="n_Ep3YgRqeOaTJRbYN4X-28" value="" style="endArrow=classic;html=1;rounded=0;exitX=0.563;exitY=1.047;exitDx=0;exitDy=0;exitPerimeter=0;entryX=0;entryY=0;entryDx=50;entryDy=0;entryPerimeter=0;" parent="1" target="n_Ep3YgRqeOaTJRbYN4X-8" edge="1">
          <mxGeometry width="50" height="50" relative="1" as="geometry">
            <mxPoint x="545" y="160" as="sourcePoint" />
            <mxPoint x="640" y="237" as="targetPoint" />
            <Array as="points" />
          </mxGeometry>
        </mxCell>
        <mxCell id="n_Ep3YgRqeOaTJRbYN4X-32" value="Meta Prophet" style="text;html=1;align=center;verticalAlign=middle;resizable=0;points=[];autosize=1;strokeColor=none;fillColor=none;" parent="1" vertex="1">
          <mxGeometry x="150" y="180" width="100" height="30" as="geometry" />
        </mxCell>
        <mxCell id="n_Ep3YgRqeOaTJRbYN4X-33" value="" style="html=1;shadow=0;dashed=0;align=center;verticalAlign=middle;shape=mxgraph.arrows2.triadArrow;dy=10;dx=20;arrowHead=40;rotation=90;" parent="1" vertex="1">
          <mxGeometry x="414" y="80" width="85" height="65" as="geometry" />
        </mxCell>
        <mxCell id="n_Ep3YgRqeOaTJRbYN4X-34" value="Concatenation" style="text;html=1;align=center;verticalAlign=middle;resizable=0;points=[];autosize=1;strokeColor=none;fillColor=none;" parent="1" vertex="1">
          <mxGeometry x="330" y="97.5" width="100" height="30" as="geometry" />
        </mxCell>
        <mxCell id="n_Ep3YgRqeOaTJRbYN4X-36" value="" style="endArrow=classic;html=1;rounded=0;entryX=1;entryY=0.5;entryDx=0;entryDy=0;entryPerimeter=0;" parent="1" source="n_Ep3YgRqeOaTJRbYN4X-11" target="n_Ep3YgRqeOaTJRbYN4X-12" edge="1">
          <mxGeometry width="50" height="50" relative="1" as="geometry">
            <mxPoint x="400" y="470" as="sourcePoint" />
            <mxPoint x="450" y="420" as="targetPoint" />
          </mxGeometry>
        </mxCell>
        <mxCell id="n_Ep3YgRqeOaTJRbYN4X-37" value="Optimization Problem" style="text;html=1;align=center;verticalAlign=middle;resizable=0;points=[];autosize=1;strokeColor=none;fillColor=none;" parent="1" vertex="1">
          <mxGeometry x="245.45" y="498" width="140" height="30" as="geometry" />
        </mxCell>
        <mxCell id="n_Ep3YgRqeOaTJRbYN4X-38" value="" style="endArrow=classic;html=1;rounded=0;exitX=-0.06;exitY=0.447;exitDx=0;exitDy=0;exitPerimeter=0;" parent="1" source="n_Ep3YgRqeOaTJRbYN4X-12" edge="1">
          <mxGeometry width="50" height="50" relative="1" as="geometry">
            <mxPoint x="260" y="420" as="sourcePoint" />
            <mxPoint x="160" y="424" as="targetPoint" />
          </mxGeometry>
        </mxCell>
      </root>
    </mxGraphModel>
  </diagram>
</mxfile>
